<svg width="456" height="203" viewBox="0 0 456 203" fill="none" xmlns="http://www.w3.org/2000/svg">
<g filter="url(#filter0_dddddd_628_14)">
<path d="M270.465 57.752C264.532 54.5745 260.736 53.6216 248.634 57.752" stroke="white" stroke-width="7" stroke-linecap="round"/>
<path d="M198.832 57.752C192.899 54.5745 189.103 53.6216 177.001 57.752" stroke="white" stroke-width="7" stroke-linecap="round"/>
<path d="M191 159.5C224.5 141 227.111 180.978 260.54 154.146" stroke="white" stroke-width="7" stroke-linecap="round"/>
<path d="M152.281 40.314C148.866 40.8393 146.174 42.6123 144.204 45.633C142.365 48.5223 141.446 52.5937 141.446 57.847L141.84 127.782C141.84 142.36 142.037 154.114 142.431 163.045C142.431 165.409 142.037 167.051 141.249 167.97H139.476C127.525 155.756 94.2317 124.17 39.597 73.213L39.006 133.298V148.27C39.006 153.523 39.9253 157.66 41.764 160.681C43.734 163.57 46.4263 165.278 49.841 165.803V166H17.139V165.803C20.5537 165.278 23.1803 163.57 25.019 160.681C26.989 157.66 27.974 153.523 27.974 148.27V130.934L28.565 58.635C28.565 50.0983 28.4337 43.7943 28.171 39.723H28.762L127.656 129.555C128.707 130.737 129.429 131.328 129.823 131.328C130.348 131.328 130.611 130.474 130.611 128.767L130.414 57.847C130.414 52.5937 129.429 48.5223 127.459 45.633C125.62 42.6123 122.994 40.8393 119.579 40.314V40.117H152.281V40.314Z" fill="white"/>
<path d="M303.719 40.314C307.134 40.8393 309.826 42.6123 311.796 45.633C313.635 48.5223 314.554 52.5937 314.554 57.847L314.16 127.782C314.16 142.36 313.963 154.114 313.569 163.045C313.569 165.409 313.963 167.051 314.751 167.97H316.524C328.475 155.756 361.768 124.17 416.403 73.213L416.994 133.298V148.27C416.994 153.523 416.075 157.66 414.236 160.681C412.266 163.57 409.574 165.278 406.159 165.803V166H438.861V165.803C435.446 165.278 432.82 163.57 430.981 160.681C429.011 157.66 428.026 153.523 428.026 148.27V130.934L427.435 58.635C427.435 50.0983 427.566 43.7943 427.829 39.723H427.238L328.344 129.555C327.293 130.737 326.571 131.328 326.177 131.328C325.652 131.328 325.389 130.474 325.389 128.767L325.586 57.847C325.586 52.5937 326.571 48.5223 328.541 45.633C330.38 42.6123 333.006 40.8393 336.421 40.314V40.117H303.719V40.314Z" fill="white"/>
<path d="M217.246 83.8021C217.315 84.2684 217.352 84.9682 217.357 85.9015C217.118 90.9695 217.02 97.4368 217.063 105.303C217.094 111.037 217.17 118.736 217.289 128.403L217.189 128.403C216.913 126.671 216.039 125.343 214.567 124.417C213.029 123.426 210.926 122.937 208.259 122.952L162.659 123.1L162.66 123.2L162.56 123.201C159.893 123.215 157.829 123.727 156.368 124.735C154.84 125.676 153.947 127.015 153.69 128.749L153.59 128.75L153.39 110.451C153.363 105.518 153.272 100.951 153.116 96.7521L153.112 96.0521C153.029 93.1191 152.881 90.3866 152.667 87.8544C152.522 85.7218 152.65 84.6544 153.05 84.6522L154.65 84.6435L163.349 84.4961L163.349 84.5961C162.484 84.7341 161.719 85.0716 161.055 85.6086C160.391 86.1456 159.829 87.0153 159.369 88.2178C158.842 89.4207 158.451 91.0229 158.195 93.0243C157.873 95.0261 157.654 97.594 157.537 100.728C157.486 103.528 157.474 107.395 157.501 112.328C157.506 113.395 157.677 114.094 158.012 114.426C158.213 114.558 158.713 114.622 159.513 114.617L179.913 114.506C180.713 114.502 181.11 114.033 181.105 113.1C181.096 111.366 181.095 105.066 181.102 94.1994C181.088 91.5327 180.477 89.6027 179.27 88.4093C177.997 87.2162 176.493 86.4911 174.759 86.2339L174.758 86.1339C177.358 86.1863 182.725 86.1237 190.857 85.946L190.858 86.046C189.126 86.3222 187.798 87.2294 186.873 88.7678C185.881 90.2399 185.392 92.3093 185.406 94.9759C185.163 99.1773 185.096 105.378 185.208 113.577C185.211 114.177 185.446 114.476 185.913 114.473L207.212 114.357C210.212 114.341 212.069 112.564 212.783 109.027C212.912 108.159 212.962 105.126 212.934 99.9258C212.921 97.5259 212.676 95.3938 212.199 93.5298C211.044 89.536 209.794 86.6094 208.451 84.7501C207.04 82.8244 205.467 81.5996 203.731 81.0758L203.83 80.9752L216.741 82.9048L217.342 83.0015L217.246 83.8021Z" fill="white"/>
<path d="M302.872 105.088C302.872 114.112 299.544 121.76 292.888 128.032C286.296 134.24 278.392 137.344 269.176 137.344C259.512 137.344 251.48 134.432 245.08 128.608C238.488 122.656 235.192 114.912 235.192 105.376C235.192 96.224 238.52 88.512 245.176 82.24C251.768 76.096 259.768 73.024 269.176 73.024C278.776 73.024 286.776 76.032 293.176 82.048C299.64 88.064 302.872 95.744 302.872 105.088ZM293.368 106.72C293.368 97.632 290.872 90.432 285.88 85.12C281.144 80.064 274.84 77.536 266.968 77.536C260.504 77.536 255.16 79.936 250.936 84.736C246.776 89.536 244.696 95.776 244.696 103.456C244.696 112.672 247.128 119.936 251.992 125.248C256.728 130.368 263.128 132.928 271.192 132.928C277.72 132.928 283.032 130.528 287.128 125.728C291.288 120.864 293.368 114.528 293.368 106.72Z" fill="white"/>
</g>
<defs>
<filter id="filter0_dddddd_628_14" x="11.1387" y="33.7227" width="433.723" height="140.247" filterUnits="userSpaceOnUse" color-interpolation-filters="sRGB">
<feFlood flood-opacity="0" result="BackgroundImageFix"/>
<feColorMatrix in="SourceAlpha" type="matrix" values="0 0 0 0 0 0 0 0 0 0 0 0 0 0 0 0 0 0 127 0" result="hardAlpha"/>
<feOffset/>
<feColorMatrix type="matrix" values="0 0 0 0 0.0196078 0 0 0 0 1 0 0 0 0 0.215686 0 0 0 0.6 0"/>
<feBlend mode="normal" in2="BackgroundImageFix" result="effect1_dropShadow_628_14"/>
<feColorMatrix in="SourceAlpha" type="matrix" values="0 0 0 0 0 0 0 0 0 0 0 0 0 0 0 0 0 0 127 0" result="hardAlpha"/>
<feOffset/>
<feGaussianBlur stdDeviation="1"/>
<feColorMatrix type="matrix" values="0 0 0 0 0.0196078 0 0 0 0 1 0 0 0 0 0.215686 0 0 0 0.59 0"/>
<feBlend mode="normal" in2="effect1_dropShadow_628_14" result="effect2_dropShadow_628_14"/>
<feColorMatrix in="SourceAlpha" type="matrix" values="0 0 0 0 0 0 0 0 0 0 0 0 0 0 0 0 0 0 127 0" result="hardAlpha"/>
<feOffset/>
<feGaussianBlur stdDeviation="1.5"/>
<feColorMatrix type="matrix" values="0 0 0 0 0.0196078 0 0 0 0 1 0 0 0 0 0.215686 0 0 0 0.51 0"/>
<feBlend mode="normal" in2="effect2_dropShadow_628_14" result="effect3_dropShadow_628_14"/>
<feColorMatrix in="SourceAlpha" type="matrix" values="0 0 0 0 0 0 0 0 0 0 0 0 0 0 0 0 0 0 127 0" result="hardAlpha"/>
<feOffset/>
<feGaussianBlur stdDeviation="2.5"/>
<feColorMatrix type="matrix" values="0 0 0 0 0.0196078 0 0 0 0 1 0 0 0 0 0.215686 0 0 0 0.3 0"/>
<feBlend mode="normal" in2="effect3_dropShadow_628_14" result="effect4_dropShadow_628_14"/>
<feColorMatrix in="SourceAlpha" type="matrix" values="0 0 0 0 0 0 0 0 0 0 0 0 0 0 0 0 0 0 127 0" result="hardAlpha"/>
<feOffset/>
<feGaussianBlur stdDeviation="2.5"/>
<feColorMatrix type="matrix" values="0 0 0 0 0.0196078 0 0 0 0 1 0 0 0 0 0.215686 0 0 0 0.09 0"/>
<feBlend mode="normal" in2="effect4_dropShadow_628_14" result="effect5_dropShadow_628_14"/>
<feColorMatrix in="SourceAlpha" type="matrix" values="0 0 0 0 0 0 0 0 0 0 0 0 0 0 0 0 0 0 127 0" result="hardAlpha"/>
<feOffset/>
<feGaussianBlur stdDeviation="3"/>
<feColorMatrix type="matrix" values="0 0 0 0 0.0196078 0 0 0 0 1 0 0 0 0 0.215686 0 0 0 0.01 0"/>
<feBlend mode="normal" in2="effect5_dropShadow_628_14" result="effect6_dropShadow_628_14"/>
<feBlend mode="normal" in="SourceGraphic" in2="effect6_dropShadow_628_14" result="shape"/>
</filter>
</defs>
</svg>
