<svg width="83" height="37" viewBox="0 0 83 37" fill="none" xmlns="http://www.w3.org/2000/svg">
<g clip-path="url(#clip0_628_15)">
<g filter="url(#filter0_dddddd_628_15)">
<path d="M49.2295 10.526C48.1496 9.94686 47.4586 9.77318 45.2559 10.526" stroke="white" stroke-width="2" stroke-linecap="round"/>
<path d="M36.1904 10.526C35.1105 9.94686 34.4196 9.77318 32.2168 10.526" stroke="white" stroke-width="2" stroke-linecap="round"/>
<path d="M34.7656 29.0716C40.8632 25.6996 41.3385 32.9863 47.4231 28.0957" stroke="white" stroke-width="2" stroke-linecap="round"/>
<path d="M27.7174 7.34795C27.0958 7.4437 26.6058 7.76686 26.2472 8.31743C25.9125 8.84405 25.7452 9.58613 25.7452 10.5436L25.8169 23.2904C25.8169 25.9475 25.8528 28.0898 25.9245 29.7176C25.9245 30.1485 25.8528 30.4478 25.7093 30.6153H25.3866C23.2113 28.3891 17.1514 22.6321 7.20689 13.3443L7.09932 24.2958V27.0247C7.09932 27.9821 7.26665 28.7361 7.60132 29.2868C7.9599 29.8133 8.44994 30.1246 9.07148 30.2203V30.2562H3.11914V30.2203C3.74068 30.1246 4.21876 29.8133 4.55344 29.2868C4.91201 28.7361 5.0913 27.9821 5.0913 27.0247V23.8649L5.19887 10.6872C5.19887 9.1313 5.17497 7.98229 5.12716 7.24023H5.23473L23.2352 23.6136C23.4265 23.829 23.5579 23.9367 23.6296 23.9367C23.7252 23.9367 23.773 23.7811 23.773 23.4699L23.7372 10.5436C23.7372 9.58613 23.5579 8.84405 23.1993 8.31743C22.8646 7.76686 22.3866 7.4437 21.765 7.34795V7.31205H27.7174V7.34795Z" fill="white"/>
<path d="M55.2812 7.34795C55.9028 7.4437 56.3928 7.76686 56.7514 8.31743C57.0861 8.84405 57.2534 9.58613 57.2534 10.5436L57.1817 23.2904C57.1817 25.9475 57.1458 28.0898 57.0741 29.7176C57.0741 30.1485 57.1458 30.4478 57.2893 30.6153H57.612C59.7873 28.3891 65.8472 22.6321 75.7917 13.3443L75.8993 24.2958V27.0247C75.8993 27.9821 75.732 28.7361 75.3973 29.2868C75.0387 29.8133 74.5487 30.1246 73.9271 30.2203V30.2562H79.8795V30.2203C79.2579 30.1246 78.7799 29.8133 78.4452 29.2868C78.0866 28.7361 77.9073 27.9821 77.9073 27.0247V23.8649L77.7997 10.6872C77.7997 9.1313 77.8236 7.98229 77.8715 7.24023H77.7639L59.7634 23.6136C59.5721 23.829 59.4407 23.9367 59.369 23.9367C59.2734 23.9367 59.2256 23.7811 59.2256 23.4699L59.2614 10.5436C59.2614 9.58613 59.4407 8.84405 59.7993 8.31743C60.134 7.76686 60.612 7.4437 61.2336 7.34795V7.31205H55.2812V7.34795Z" fill="white"/>
<path d="M39.5424 15.274C39.5549 15.359 39.5617 15.4866 39.5626 15.6567C39.5191 16.5804 39.5012 17.7592 39.5091 19.1929C39.5147 20.238 39.5285 21.6413 39.5502 23.4033H39.532C39.4818 23.0876 39.3227 22.8455 39.0547 22.6768C38.7748 22.4961 38.392 22.407 37.9066 22.4097L29.6066 22.4367L29.6068 22.4549L29.5886 22.4551C29.1031 22.4577 28.7274 22.551 28.4615 22.7347C28.1834 22.9062 28.0208 23.1503 27.9741 23.4663L27.9559 23.4665L27.9195 20.1312C27.9145 19.2321 27.898 18.3997 27.8696 17.6344L27.8689 17.5068C27.8537 16.9722 27.8268 16.4742 27.7879 16.0126C27.7615 15.6239 27.7848 15.4294 27.8576 15.429L28.1488 15.4274L29.7322 15.4005V15.4188C29.5747 15.4439 29.4355 15.5054 29.3146 15.6033C29.1938 15.7012 29.0915 15.8597 29.0077 16.0789C28.9118 16.2981 28.8407 16.5901 28.7941 16.9549C28.7354 17.3198 28.6956 17.7878 28.6743 18.3591C28.665 18.8694 28.6628 19.5742 28.6677 20.4733C28.6686 20.6678 28.6998 20.7952 28.7607 20.8557C28.7973 20.8798 28.8883 20.8915 29.034 20.8905L32.7471 20.8703C32.8927 20.8696 32.965 20.7841 32.9641 20.614C32.9624 20.298 32.9623 19.1497 32.9635 17.1691C32.961 16.6831 32.8498 16.3313 32.6301 16.1138C32.3984 15.8963 32.1246 15.7642 31.809 15.7173L31.8088 15.699C32.2821 15.7086 33.2589 15.6972 34.7391 15.6648L34.7393 15.683C34.424 15.7334 34.1823 15.8987 34.014 16.1791C33.8334 16.4474 33.7444 16.8246 33.7469 17.3106C33.7027 18.0764 33.6905 19.2066 33.7109 20.701C33.7114 20.8103 33.7542 20.8648 33.8392 20.8643L37.716 20.8432C38.2621 20.8402 38.6001 20.5164 38.73 19.8717C38.7535 19.7135 38.7626 19.1607 38.7575 18.2128C38.7551 17.7754 38.7106 17.3868 38.6237 17.0471C38.4135 16.3191 38.186 15.7857 37.9415 15.4468C37.6847 15.0958 37.3984 14.8726 37.0824 14.7771L37.1004 14.7588L39.4504 15.1105L39.5598 15.1281L39.5424 15.274Z" fill="white"/>
<path d="M55.1275 19.1537C55.1275 20.7985 54.5218 22.1925 53.3103 23.3357C52.1104 24.4672 50.6718 25.0329 48.9943 25.0329C47.2353 25.0329 45.7733 24.5022 44.6084 23.4406C43.4085 22.3558 42.8086 20.9443 42.8086 19.2062C42.8086 17.5381 43.4143 16.1325 44.6259 14.9893C45.8257 13.8695 47.2819 13.3096 48.9943 13.3096C50.7416 13.3096 52.1978 13.8578 53.3627 14.9543C54.5393 16.0508 55.1275 17.4507 55.1275 19.1537ZM53.3976 19.4512C53.3976 17.7948 52.9433 16.4825 52.0347 15.5143C51.1727 14.5927 50.0252 14.132 48.5924 14.132C47.4158 14.132 46.4431 14.5694 45.6743 15.4443C44.9171 16.3191 44.5385 17.4565 44.5385 18.8563C44.5385 20.5361 44.9812 21.86 45.8665 22.8282C46.7285 23.7614 47.8934 24.228 49.3612 24.228C50.5494 24.228 51.5163 23.7906 52.2619 22.9157C53.019 22.0292 53.3976 20.8743 53.3976 19.4512Z" fill="white"/>
</g>
</g>
<defs>
<filter id="filter0_dddddd_628_15" x="-2.88086" y="1.24023" width="88.7598" height="35.6035" filterUnits="userSpaceOnUse" color-interpolation-filters="sRGB">
<feFlood flood-opacity="0" result="BackgroundImageFix"/>
<feColorMatrix in="SourceAlpha" type="matrix" values="0 0 0 0 0 0 0 0 0 0 0 0 0 0 0 0 0 0 127 0" result="hardAlpha"/>
<feOffset/>
<feColorMatrix type="matrix" values="0 0 0 0 0.0196078 0 0 0 0 1 0 0 0 0 0.215686 0 0 0 0.6 0"/>
<feBlend mode="normal" in2="BackgroundImageFix" result="effect1_dropShadow_628_15"/>
<feColorMatrix in="SourceAlpha" type="matrix" values="0 0 0 0 0 0 0 0 0 0 0 0 0 0 0 0 0 0 127 0" result="hardAlpha"/>
<feOffset/>
<feGaussianBlur stdDeviation="1"/>
<feColorMatrix type="matrix" values="0 0 0 0 0.0196078 0 0 0 0 1 0 0 0 0 0.215686 0 0 0 0.59 0"/>
<feBlend mode="normal" in2="effect1_dropShadow_628_15" result="effect2_dropShadow_628_15"/>
<feColorMatrix in="SourceAlpha" type="matrix" values="0 0 0 0 0 0 0 0 0 0 0 0 0 0 0 0 0 0 127 0" result="hardAlpha"/>
<feOffset/>
<feGaussianBlur stdDeviation="1.5"/>
<feColorMatrix type="matrix" values="0 0 0 0 0.0196078 0 0 0 0 1 0 0 0 0 0.215686 0 0 0 0.51 0"/>
<feBlend mode="normal" in2="effect2_dropShadow_628_15" result="effect3_dropShadow_628_15"/>
<feColorMatrix in="SourceAlpha" type="matrix" values="0 0 0 0 0 0 0 0 0 0 0 0 0 0 0 0 0 0 127 0" result="hardAlpha"/>
<feOffset/>
<feGaussianBlur stdDeviation="2.5"/>
<feColorMatrix type="matrix" values="0 0 0 0 0.0196078 0 0 0 0 1 0 0 0 0 0.215686 0 0 0 0.3 0"/>
<feBlend mode="normal" in2="effect3_dropShadow_628_15" result="effect4_dropShadow_628_15"/>
<feColorMatrix in="SourceAlpha" type="matrix" values="0 0 0 0 0 0 0 0 0 0 0 0 0 0 0 0 0 0 127 0" result="hardAlpha"/>
<feOffset/>
<feGaussianBlur stdDeviation="2.5"/>
<feColorMatrix type="matrix" values="0 0 0 0 0.0196078 0 0 0 0 1 0 0 0 0 0.215686 0 0 0 0.09 0"/>
<feBlend mode="normal" in2="effect4_dropShadow_628_15" result="effect5_dropShadow_628_15"/>
<feColorMatrix in="SourceAlpha" type="matrix" values="0 0 0 0 0 0 0 0 0 0 0 0 0 0 0 0 0 0 127 0" result="hardAlpha"/>
<feOffset/>
<feGaussianBlur stdDeviation="3"/>
<feColorMatrix type="matrix" values="0 0 0 0 0.0196078 0 0 0 0 1 0 0 0 0 0.215686 0 0 0 0.01 0"/>
<feBlend mode="normal" in2="effect5_dropShadow_628_15" result="effect6_dropShadow_628_15"/>
<feBlend mode="normal" in="SourceGraphic" in2="effect6_dropShadow_628_15" result="shape"/>
</filter>
<clipPath id="clip0_628_15">
<rect width="83" height="37" fill="white"/>
</clipPath>
</defs>
</svg>
